<svg version="1.1" xmlns="http://www.w3.org/2000/svg" style="display: block;" viewBox="0 0 2048 2048" width="820" height="820" preserveAspectRatio="none">
<path transform="translate(0,0)" fill="rgb(254,254,254)" d="M 0 0 L 2048 0 L 2048 2048 L 0 2048 L 0 0 z"/>
<path transform="translate(0,0)" fill="rgb(59,76,28)" d="M 317.514 177.497 C 346.202 177.395 385.332 175.465 410.242 190.356 C 420.602 196.549 435.425 209.884 441.185 220.486 C 460.022 255.155 467.027 303.691 474.961 342.444 C 480.706 371.284 487.072 399.997 494.055 428.562 C 600.502 427.853 706.953 427.709 813.401 428.132 L 1357.81 428.765 L 1684.13 427.475 L 1811.61 427.326 C 1834.82 427.284 1858.12 426.827 1881.32 427.312 C 1892.07 427.537 1904.13 431.473 1912.51 438.397 C 1929.39 451.754 1950.87 477.873 1946.58 501.439 C 1940.36 535.607 1928.71 572.478 1920.05 606.586 L 1846.55 893.632 L 1800.78 1072.81 C 1792.69 1104.62 1784.71 1137.03 1775.92 1168.6 C 1771.74 1181.93 1766 1195.66 1757.03 1206.41 C 1733.54 1234.58 1701.94 1229.58 1668.83 1229.39 L 1591.64 1229.03 L 1330.73 1228.86 L 964.67 1228.29 C 921.962 1228.53 879.253 1228.54 836.544 1228.34 C 816.958 1228.29 796.97 1228.31 777.393 1228.05 C 766.838 1227.91 755.004 1223.23 747.03 1216.23 C 736.49 1207.12 728.923 1193.35 727.778 1179.43 C 726.035 1158.25 744.975 1130.14 767.174 1128.4 C 792.381 1126.43 818.641 1127.02 844.061 1126.96 L 994.494 1126.81 L 1448.6 1126.99 L 1592.22 1127.15 C 1614.25 1127.15 1636.65 1127.49 1658.63 1127.13 C 1664.34 1127.03 1674.06 1126.48 1677.45 1121.82 C 1684.38 1112.31 1688.17 1100.29 1691.37 1089.24 C 1701.64 1053.71 1709.67 1017.63 1718.79 981.883 L 1769.32 786.547 L 1809.17 635.118 C 1812.81 621.543 1836.07 543.067 1835.45 533.74 C 1824.2 530.873 1797.38 531.747 1784.32 531.651 L 1693.79 531.272 L 1340.5 531.101 L 798.594 530.928 C 733.467 530.343 668.336 530.223 603.207 530.567 C 573.133 530.553 540.945 529.79 511.065 530.635 C 513.712 550.439 520.498 578.204 524.709 598.736 L 553.869 739.766 L 651.388 1218.93 C 656.384 1244.14 661.231 1269.38 665.931 1294.64 C 668.802 1310.44 670.78 1327.1 674.969 1342.58 C 675.686 1345.23 678.084 1352.66 680.655 1354.07 C 688.301 1358.29 817.921 1355.13 836.893 1355.13 L 1445.38 1355.15 L 1632.61 1354.98 C 1665.21 1354.79 1698.16 1353.51 1730.71 1354.37 C 1784.44 1356 1787.3 1427.72 1747.95 1450.59 C 1731.71 1460.02 1689.01 1456.91 1669.25 1456.93 L 1576.01 1457.09 L 1274.07 1456.98 L 825.566 1456.87 L 697.782 1457.17 C 673.401 1457.34 648.918 1457.83 624.563 1457.72 C 617.643 1457.68 603.432 1457.04 597.511 1453.91 C 588.27 1449.03 582.899 1443.37 579.983 1433.41 C 574.053 1413.15 573.682 1391.17 569.972 1369.91 C 566.586 1350.51 562.782 1332.31 558.941 1313.09 C 555.883 1297.8 553.635 1282.12 550.669 1266.73 L 432.765 658.008 C 416.294 571.399 399.187 484.911 381.446 398.553 C 375.522 370.238 370.062 341.493 363.572 313.377 C 355.547 278.608 353.531 280.264 318.682 280.056 C 309.495 280.001 298.712 279.897 289.376 279.864 L 175.161 279.872 C 162.817 279.873 150.483 279.96 138.15 279.709 C 122.234 279.385 112.162 275.869 102.357 262.398 C 86.6749 240.856 89.1851 208.959 107.616 189.911 C 122.13 174.911 146.6 178.316 165.445 177.761 C 175.516 177.55 186.068 177.763 196.232 177.768 L 317.514 177.497 z"/>
<path transform="translate(0,0)" fill="rgb(59,76,28)" d="M 662.7 1533.4 C 705.513 1528.55 755.473 1542.34 790.743 1566.94 C 828.45 1592.74 854.289 1632.53 862.515 1677.47 C 880.581 1781.47 791.898 1885.87 691.915 1902.71 C 690.138 1902.98 688.355 1903.22 686.569 1903.42 C 672.487 1904.99 653.482 1904.99 639.7 1902.13 C 505.302 1874.24 436.527 1714.94 528.623 1605.79 C 565.241 1562.39 606.427 1538.54 662.7 1533.4 z"/>
<path transform="translate(0,0)" fill="rgb(254,254,254)" d="M 675.557 1624.32 C 721.189 1618.5 763.602 1654.51 768.927 1699.43 C 771.634 1724.16 764.445 1748.96 748.931 1768.41 C 730.413 1791.94 709.126 1805.94 679.335 1809.65 C 603.324 1813.01 556.218 1724.83 603.651 1664.64 C 623.01 1640.07 644.535 1628.41 675.557 1624.32 z"/>
<path transform="translate(0,0)" fill="rgb(59,76,28)" d="M 1575.9 1533.33 C 1674.5 1523.15 1762.62 1594.99 1772.5 1693.61 C 1782.39 1792.24 1710.28 1880.14 1611.63 1889.73 C 1513.39 1899.27 1425.95 1827.54 1416.11 1729.34 C 1406.26 1631.13 1477.73 1543.48 1575.9 1533.33 z"/>
<path transform="translate(0,0)" fill="rgb(254,254,254)" d="M 1587.48 1625.46 C 1635.7 1621.49 1678.04 1657.28 1682.16 1705.48 C 1686.29 1753.68 1650.64 1796.14 1602.45 1800.43 C 1554.04 1804.73 1511.34 1768.89 1507.19 1720.46 C 1503.04 1672.03 1539.03 1629.44 1587.48 1625.46 z"/>
</svg>