<svg version="1.1" xmlns="http://www.w3.org/2000/svg" style="display: block;" viewBox="0 0 2048 2027" width="772" height="764" preserveAspectRatio="none">
<path transform="translate(0,0)" fill="rgb(255,255,255)" d="M 0 0 L 2048 0 L 2048 2027 L 0 2027 L 0 0 z"/>
<path transform="translate(0,0)" fill="rgb(66,81,33)" d="M 1278.15 145.449 C 1425.15 139.782 1571.89 162.078 1710.57 211.151 C 1727.21 217.22 1744.29 223.22 1760.57 230.427 C 1882.95 284.627 2039.99 398.593 1979.16 553.375 C 1969.35 578.341 1952.25 600.862 1936.51 622.291 C 1974.2 666.958 1988.19 695.875 1992.43 755.512 C 1997.44 826.005 1981.21 875.186 1934.32 928.783 C 1939.69 934.205 1944.74 939.942 1949.44 945.964 C 1994.36 1003.97 1998.03 1064.48 1990.9 1134.33 C 1984.04 1202.26 1938.2 1261.97 1883.95 1302.71 C 1766.51 1390.89 1608.33 1439.77 1461.96 1443.73 C 1450.15 1444.05 1454.81 1416.88 1454.3 1408.82 C 1450.57 1349.57 1465.97 1350.54 1515.75 1342.56 C 1532.14 1340.01 1548.48 1337.09 1564.75 1333.81 C 1641.97 1318.15 1732.91 1285.25 1799.61 1242.56 C 1840.25 1216.55 1878.68 1179.5 1887.45 1130.46 C 1892.42 1102.66 1893.16 1041.11 1886.48 1014.2 C 1883.11 1000.63 1877.35 987.769 1869.46 976.219 C 1783.09 1041.29 1685.49 1073.88 1580.16 1095.39 C 1547.92 1101.97 1493.9 1109.24 1461.69 1104.28 C 1453.31 1102.99 1456.86 1027.17 1456.97 1016.48 C 1566.67 1001.65 1686.91 978.125 1784.37 923.981 C 1821.04 902.63 1876.78 866.332 1885.15 821.278 C 1893.25 777.694 1896.82 706.124 1874.61 667.361 C 1858.93 675.126 1845.78 686.361 1830.91 694.788 C 1659.84 791.773 1428.19 820.413 1236.41 801.961 C 1291.8 829.195 1327.89 860.773 1365.16 910.072 C 1408.68 970.392 1401.93 1036.62 1359.69 1096.12 C 1352.15 1106.74 1342.63 1116.02 1334.47 1126.22 C 1383.82 1166.07 1396.33 1211.94 1395.01 1274.39 C 1393.67 1337.28 1364.88 1387.78 1319.82 1429.73 C 1389.91 1484.85 1404.87 1542 1390.65 1629.04 C 1379.88 1695.04 1330.15 1754.23 1276.19 1790.78 C 1160.61 1869.09 1009.81 1907.41 872.038 1919.47 C 827.228 1923.02 782.279 1924.52 737.332 1923.95 C 664.06 1923.58 577.158 1918.1 504.885 1903.37 C 372.117 1876.31 204.471 1816.08 124.899 1698.67 C 97.1369 1658.68 85.619 1619.2 85.2177 1570.94 C 84.6357 1500.95 99.6841 1461.02 157.921 1421.85 C 119.067 1380.49 90.3354 1341.17 83.1023 1282.56 C 77.6048 1238.01 81.7599 1189.06 104.587 1149.63 C 111.845 1137.09 121.001 1125.86 129.927 1114.45 C 123.043 1104.26 114.385 1094.64 107.331 1084.33 C 17.8852 953.58 159.927 844.75 265.217 789.741 C 422.012 707.822 631.446 672.644 807.587 690.028 C 740.854 648.791 660.758 570.17 657.553 487.565 C 653.988 397.494 727.903 322.906 797.709 276.476 C 937.316 183.619 1113.16 150.741 1278.15 145.449 z"/>
<path transform="translate(0,0)" fill="rgb(255,255,255)" d="M 1283.04 246.455 C 1461.51 239.934 1699.62 281.844 1842.31 396.716 C 1958.78 493.776 1841.49 581.724 1749.5 624.969 C 1623.92 683.998 1501.09 702.218 1364.87 708.716 C 1182.5 712.121 944.239 685.312 800.21 561.335 C 699.554 474.692 792.431 392.057 877.446 345.828 C 1003.98 277.02 1140.02 250.841 1283.04 246.455 z"/>
<path transform="translate(0,0)" fill="rgb(255,255,255)" d="M 749.554 783.487 C 896.579 782.792 1153.1 822.754 1261.62 930.012 C 1279.21 947.403 1292.86 968.671 1292.83 994.147 C 1292.79 1018.86 1276.37 1041.47 1259.51 1058.18 C 1175.51 1141.37 1001.68 1181.15 888.231 1193.81 C 835.396 1199.7 782.476 1201.17 729.374 1200.79 C 568.284 1198.71 345.775 1163.37 218.237 1054.76 C 137.211 985.759 229.242 923.822 290.851 888.712 C 428.399 810.325 592.882 785.315 749.554 783.487 z"/>
<path transform="translate(0,0)" fill="rgb(255,255,255)" d="M 211.054 1472.52 C 230.652 1482.11 251.482 1500.25 272.867 1510.75 C 332.762 1540.14 400.797 1565.41 466.364 1578.79 C 713.872 1629.26 991.148 1620.62 1219.67 1504.23 C 1235.51 1496.06 1250.66 1484.94 1265.59 1475.29 C 1279.37 1496.61 1289.33 1519.44 1289.91 1544.9 C 1291.17 1601.01 1292.6 1633.4 1254.23 1676.63 C 1188.25 1746.94 1055.87 1790.18 959.299 1806.34 C 738.82 1843.25 465.751 1832.15 271.556 1709.35 C 202.102 1665.43 181.653 1607.27 189.21 1529.8 C 191.802 1503.23 196.046 1494.37 211.054 1472.52 z"/>
<path transform="translate(0,0)" fill="rgb(255,255,255)" d="M 191.727 1160.97 C 198.787 1163.79 213.722 1173.57 220.593 1177.68 C 235.045 1186.33 249.559 1195.47 264.921 1202.58 C 335.353 1235.16 411.802 1259.68 487.726 1274.81 C 683.948 1313.98 887.279 1312.96 1080.45 1257.89 C 1161.11 1234.9 1220.37 1208.09 1289.34 1161.57 C 1290.92 1165.83 1292.06 1170.24 1292.76 1174.72 C 1295.37 1190.97 1295.47 1208.1 1295.61 1224.51 C 1296.03 1273.62 1295.88 1303.78 1266.22 1344.96 C 1228.63 1394.37 1151.25 1432.18 1093.97 1452.98 C 919.436 1516.34 726.03 1521.3 543.815 1493.5 C 486.798 1484.79 423.846 1466.81 369.884 1446.3 C 308.59 1420.23 209.753 1370.63 190.781 1301.64 C 181.299 1267.17 185.838 1196.11 191.727 1160.97 z"/>
</svg>