<svg version="1.1" xmlns="http://www.w3.org/2000/svg" style="display: block;" viewBox="0 0 2048 2048" width="820" height="820" preserveAspectRatio="none">
<path transform="translate(0,0)" fill="rgb(255,255,255)" d="M 0 0 L 2048 0 L 2048 2048 L 0 2048 L 0 0 z"/>
<path transform="translate(0,0)" fill="rgb(48,83,38)" d="M 1030.46 1323.45 C 1035.63 1323.25 1040.8 1323.15 1045.97 1323.13 C 1204.86 1322.37 1375.54 1375.22 1489.15 1489.73 C 1576.66 1577.93 1629.22 1710.24 1630.14 1834.47 C 1631 1868.39 1624.52 1900.55 1600.39 1925.76 C 1573.49 1953.85 1531.21 1948.92 1494.97 1948.59 C 1470.04 1948.29 1445.1 1948.24 1420.16 1948.46 L 1062.5 1948.13 L 708.177 1948.06 L 606.839 1948.12 C 566.589 1948.02 526.29 1953.28 495.056 1923.95 C 447.095 1878.91 455.893 1805.82 465.66 1746.84 C 480.743 1655.76 522.719 1569.34 586.892 1502.73 C 701.621 1387.07 869.697 1328.54 1030.46 1323.45 z"/>
<path transform="translate(0,0)" fill="rgb(255,255,255)" d="M 1008.08 1414.57 C 1018.12 1414.01 1028.18 1413.69 1038.23 1413.61 C 1169.33 1411.97 1303.17 1447.96 1403.69 1535.29 C 1488.75 1609.2 1534.77 1717.45 1537.7 1829.23 C 1538.16 1846.69 1533.25 1855.35 1515.2 1854.84 C 1497.37 1855.06 1479.32 1855.04 1461.45 1855 L 1360.8 1854.78 L 1082.5 1854.83 L 741.998 1854.47 C 688.229 1854.57 634.464 1855.38 580.703 1854.63 C 561.017 1854.36 555.332 1850.59 554.427 1829.39 C 550.728 1742.67 586.132 1644 643.192 1578.83 C 731.367 1478.12 877.128 1423.24 1008.08 1414.57 z"/>
<path transform="translate(0,0)" fill="rgb(48,83,38)" d="M 1015.75 728.226 C 1160.14 716.418 1286.8 823.811 1298.76 968.189 C 1310.73 1112.57 1203.47 1239.34 1059.11 1251.47 C 914.523 1263.61 787.505 1156.15 775.521 1011.55 C 763.538 866.952 871.132 740.052 1015.75 728.226 z"/>
<path transform="translate(0,0)" fill="rgb(255,255,255)" d="M 1021.53 816.38 C 1064.48 813.205 1102.69 825.901 1137.13 851.448 C 1153.01 863.23 1165.35 877.848 1176.7 893.919 C 1250.15 997.902 1177.73 1151.02 1052.24 1166.86 C 1007.53 1168.73 980.89 1162.34 944.15 1134.43 C 903.6 1103.39 875.345 1056.3 868.487 1005.72 C 855.81 912.216 928.762 826.088 1021.53 816.38 z"/>
<path transform="translate(0,0)" fill="rgb(48,83,38)" d="M 1531.58 342.216 C 1669.07 329.466 1790.82 430.672 1803.42 568.175 C 1816.02 705.678 1714.68 827.323 1577.16 839.768 C 1439.86 852.194 1318.44 751.046 1305.87 613.758 C 1293.29 476.47 1394.3 354.945 1531.58 342.216 z"/>
<path transform="translate(0,0)" fill="rgb(255,255,255)" d="M 1539.44 430.718 C 1628.02 422.591 1706.44 487.766 1714.64 576.339 C 1722.85 664.911 1657.75 743.386 1569.19 751.676 C 1480.5 759.977 1401.91 694.77 1393.69 606.082 C 1385.47 517.395 1450.75 438.855 1539.44 430.718 z"/>
<path transform="translate(0,0)" fill="rgb(48,83,38)" d="M 478.673 346.709 C 616.723 341.238 732.922 449.022 737.823 587.093 C 742.725 725.164 634.462 840.917 496.372 845.248 C 359.086 849.555 244.153 742.059 239.28 604.792 C 234.407 467.524 341.427 352.149 478.673 346.709 z"/>
<path transform="translate(0,0)" fill="rgb(255,255,255)" d="M 479.425 434.534 C 568.186 429.076 644.572 496.592 650.057 585.351 C 655.542 674.111 588.049 750.517 499.291 756.028 C 410.496 761.542 334.05 694.014 328.563 605.217 C 323.076 516.421 390.627 439.995 479.425 434.534 z"/>
<path transform="translate(0,0)" fill="rgb(48,83,38)" d="M 444.862 912.465 C 533.063 910.734 614.651 926.005 685.493 983.515 C 712.921 1006.05 737.928 1039.1 742.669 1075.07 C 745.612 1097.41 729.426 1115.16 707.574 1113.77 C 690.866 1112.72 668.671 1083.08 656.836 1071.02 C 606.901 1020.13 534.459 997.235 464.247 998.545 C 372.497 999.384 280.3 1022.96 214.137 1090.16 C 182.558 1122.23 151.385 1176.94 151.67 1222.72 L 550.239 1222.15 L 680.122 1222.22 C 696.362 1222.25 712.639 1222.21 728.846 1222.49 C 742.444 1222.87 754.104 1222.83 764.776 1232.59 C 796.858 1261.92 781.21 1311.12 735.871 1311.34 C 720.324 1311.41 703.507 1311.29 687.696 1311.2 C 662.556 1311.06 637.416 1311.05 612.276 1311.18 L 347.932 1311.24 L 193.699 1311.19 C 168.064 1311.17 141.979 1311.65 116.578 1310.25 C 81.5254 1308.31 56.4208 1273.08 56.5649 1239.59 C 56.8851 1165.16 95.433 1084.39 145.755 1030.8 C 224.716 946.698 332.731 916.078 444.862 912.465 z"/>
<path transform="translate(0,0)" fill="rgb(48,83,38)" d="M 1588.19 905.476 C 1693.11 904.926 1794.45 943.514 1872.43 1013.7 C 1933.24 1068.22 1982.79 1152.67 1989.39 1235.2 C 1992.31 1271.78 1973.15 1310.31 1932.07 1311.26 C 1893.64 1312.14 1854.54 1311.49 1815.87 1311.41 L 1592.79 1310.77 L 1432.88 1310.06 C 1401.65 1309.84 1371.01 1310.02 1339.77 1307.72 C 1315.51 1307.14 1295.18 1287.92 1295.81 1262.5 C 1297.03 1213.23 1331.09 1219.75 1364.36 1219.78 L 1437.5 1219.91 L 1895.53 1221.33 C 1890.58 1164.88 1839.17 1101.17 1798.41 1067.2 C 1691.18 977.132 1503.39 959.049 1396.65 1058.91 C 1371.55 1082.4 1338.98 1065.44 1338.89 1037.9 C 1338.76 999.984 1390.26 963.034 1419.56 946.136 C 1471.82 915.989 1528.65 907.005 1588.19 905.476 z"/>
</svg>