<svg version="1.1" xmlns="http://www.w3.org/2000/svg" style="display: block;" viewBox="0 0 2048 2048" width="1000" height="1000" preserveAspectRatio="none">
<path transform="translate(0,0)" fill="rgb(255,255,254)" d="M 0 0 L 2048 0 L 2048 2048 L 0 2048 L 0 0 z"/>
<path transform="translate(0,0)" fill="rgb(188,162,114)" d="M 1055.06 313.322 C 1055.43 313.275 1055.8 313.229 1056.17 313.183 C 1091.06 309.717 1125.93 319.864 1153.52 341.504 C 1198.41 377.306 1219.87 439.137 1186.61 490.428 C 1182.19 497.23 1176.57 503.697 1171.4 509.968 L 1402.51 741.759 C 1449.45 789.002 1499.91 842.422 1547.89 887.694 C 1560.81 879.049 1569.59 874.177 1584.99 870.762 C 1649.13 856.533 1717.2 904.537 1729.88 968.033 C 1735.32 995.861 1731.42 1032.39 1714.34 1055.99 C 1696.54 1080.61 1670.71 1104 1649.13 1125.91 L 1518.81 1257.14 L 1416.15 1360.21 C 1383.72 1392.79 1354.26 1431.3 1307.28 1440.29 C 1274.83 1446.51 1241.24 1439.34 1214.15 1420.41 C 1162.1 1384.66 1142.6 1316.83 1179.93 1263.09 C 1146.73 1231.86 1111.19 1195.51 1078.91 1162.85 C 1065.33 1175.05 1050.46 1191.44 1037.01 1204.36 C 994.518 1245.17 953.444 1288.91 910.186 1328.75 C 916.818 1349.8 913.843 1380.21 902.054 1398.55 C 883.65 1427.19 854.206 1455.98 830.977 1481 C 786.56 1528.67 741.901 1576.12 697.004 1623.34 C 654.076 1667.82 612.044 1713.79 568.81 1757.94 C 545.316 1780.48 524.034 1807.56 496.68 1825.55 C 413.37 1880.35 303.206 1855.52 248.71 1774.1 C 223.508 1736.59 214.217 1690.62 222.874 1646.27 C 236.622 1578.87 288.151 1540.45 334.722 1494.92 L 480.427 1352.73 L 594.142 1240.86 C 608.009 1227.22 622.464 1213.28 636.172 1199.53 C 667.047 1168.57 697.069 1156.94 740.443 1166.4 C 769.82 1136.18 799.495 1106.26 829.465 1076.63 C 856.863 1048.86 884.49 1021.31 912.343 993.993 C 887.209 969.965 863.442 944.918 838.825 920.388 C 824.037 905.653 809.048 891.242 794.926 875.851 C 780.326 885.332 769.763 891.671 752.265 894.676 C 722.592 899.375 693.692 891.711 669.159 874.861 C 609.675 834.355 595.415 753.764 638.801 695.898 C 654.487 674.977 676.109 655.387 694.707 636.817 L 787.515 543.877 L 932.583 398.376 C 972.927 358.449 995.579 322.869 1055.06 313.322 z"/>
<path transform="translate(0,0)" fill="rgb(255,255,254)" d="M 1122.36 555.734 C 1124.77 557.195 1141.28 574.2 1144.12 577.043 C 1165.69 598.574 1187.13 620.232 1208.44 642.017 L 1378.9 813.399 C 1419.1 853.97 1459.98 896.486 1501.37 935.619 L 1319.24 1119.71 L 1261.22 1178.52 C 1252.06 1187.83 1234.32 1206.62 1224.57 1213.93 C 1142.58 1129.78 1060 1046.2 976.826 963.217 L 893.196 879.793 C 877.482 864.155 860.305 846.208 843.863 831.624 C 854.454 820.595 866.59 808.867 877.613 798.227 C 959.921 718.782 1039.12 634.014 1122.36 555.734 z"/>
<path transform="translate(0,0)" fill="rgb(255,255,254)" d="M 708.824 1231.27 C 723.691 1229.74 735.989 1233.53 746.822 1244.07 C 775.658 1272.63 805.2 1300.98 833.479 1330.05 C 866.328 1363.81 819.821 1399.25 798.167 1422.48 L 683.336 1543.35 L 537.567 1696.04 C 518.634 1715.56 500.093 1735.3 480.71 1754.41 C 462.108 1772.75 447.936 1779.27 423.007 1785.95 C 323.957 1804.31 251.891 1701.97 305.262 1618.14 C 317.586 1598.78 355.38 1566.2 373.216 1548.83 L 487.269 1436.89 L 625.423 1300.9 C 645.485 1281.29 665.987 1261.1 686.273 1241.7 C 692.704 1235.56 700.234 1232.84 708.824 1231.27 z"/>
<path transform="translate(0,0)" fill="rgb(255,255,254)" d="M 1061.92 380.165 C 1070.26 379.151 1078.71 379.629 1086.88 381.576 C 1117.27 389.04 1142.7 418.365 1131.56 451.423 C 1130.08 455.799 1121.13 465.844 1117.67 469.331 C 1099.6 487.542 1081.2 505.48 1062.96 523.538 L 954.495 631.214 L 837.725 746.582 C 820.17 763.948 771.088 816.458 752.245 826.605 C 723.992 837.327 690.776 815.864 683.194 787.882 C 676.984 764.965 682.2 747.214 698.444 730.354 C 718.189 709.861 738.393 690.272 758.402 670.192 L 897.299 530.873 C 927.678 499.998 958.278 469.342 989.097 438.906 C 1001.04 426.929 1013.24 414.84 1025.03 402.759 C 1037.45 390.04 1044.6 384.566 1061.92 380.165 z"/>
<path transform="translate(0,0)" fill="rgb(255,255,254)" d="M 1606.4 937.25 C 1639.52 935.238 1665.78 962.487 1665.1 995.304 C 1665 1000.32 1663.05 1013.51 1660.07 1017.58 C 1639.36 1045.8 1611.74 1070.72 1586.87 1095.62 L 1456 1226.66 L 1361.96 1320.98 C 1347.43 1335.44 1333.16 1350.99 1317.81 1364.51 C 1310.02 1371.36 1300.42 1373.91 1290.57 1375.98 C 1255.18 1377.39 1223.72 1351.9 1229.77 1313.38 C 1230.54 1310.36 1231.37 1304.73 1233.27 1302.39 C 1251.71 1279.67 1274.28 1258.27 1294.83 1237.49 L 1414.64 1116.66 C 1454.5 1075.94 1494.58 1035.44 1534.89 995.168 C 1550.8 979.253 1566.44 962.391 1582.76 946.945 C 1588.86 941.167 1598.28 938.786 1606.4 937.25 z"/>
<path transform="translate(0,0)" fill="rgb(255,255,254)" d="M 957.708 1040.64 C 960.731 1041.41 1027.6 1108.87 1034.65 1116.13 C 1007.43 1140.79 978.764 1170.08 952.582 1196.12 L 874.098 1273.36 L 872.246 1273.74 C 847.752 1249.1 823.077 1224.63 798.223 1200.34 L 957.708 1040.64 z"/>
<path transform="translate(0,0)" fill="rgb(188,162,114)" d="M 998.379 1464.42 C 1025.7 1463.43 1058.73 1464.38 1086.71 1464.38 L 1258.99 1464.47 L 1634.29 1464.24 C 1662.38 1464.39 1682.6 1468.97 1703.15 1490.04 C 1728.7 1516.25 1727.14 1541.95 1727 1575.29 L 1733.65 1575.18 C 1748.03 1574.97 1760.08 1574.78 1773.62 1580.21 C 1810.88 1595.16 1825.14 1627.76 1825.43 1665.45 L 1825.35 1733.5 C 1825.43 1750.03 1826.39 1767.57 1824.22 1783.88 C 1822.88 1793.96 1809.32 1808.72 1799.47 1810.34 C 1780.75 1813.41 1759.64 1812.16 1740.46 1812.18 L 1642.4 1812.25 C 1562.19 1811.36 1480.85 1812.16 1400.58 1812.27 L 1088.15 1812.11 L 925.555 1812.15 C 898.43 1812.15 870.181 1812.54 843.085 1811.62 C 836.047 1811.39 827.9 1806.14 822.961 1801.23 C 811.694 1790.03 812.174 1780.89 812.101 1766.36 L 812.04 1699.01 C 812.042 1683.89 811.371 1655.62 814.532 1642.15 C 818.188 1625.92 826.346 1611.05 838.071 1599.25 C 861.669 1575.77 882.494 1575.21 913.071 1575.09 C 913.173 1543.04 913.056 1518.91 935.825 1493.4 C 952.856 1474.32 973.212 1465.96 998.379 1464.42 z"/>
<path transform="translate(0,0)" fill="rgb(255,255,254)" d="M 900.702 1639.29 L 901.637 1639.25 C 917.821 1638.65 937.92 1639.28 954.484 1639.36 L 1048.69 1639.56 L 1379.62 1639.7 L 1619.2 1639.52 L 1697.26 1639.41 C 1756.58 1639.36 1760.79 1633.95 1760.56 1696.52 C 1760.61 1713.7 1760.56 1730.88 1760.41 1748.06 L 1740.04 1747.96 L 876.998 1748.01 C 877.25 1721.17 876.043 1691.75 877.467 1664.86 C 878.211 1650.8 886.865 1642.16 900.702 1639.29 z"/>
<path transform="translate(0,0)" fill="rgb(255,255,254)" d="M 998.118 1527.12 C 1000.24 1527.02 1002.36 1526.95 1004.49 1526.93 L 1420.44 1526.9 L 1563.27 1526.9 C 1587.83 1526.9 1612.24 1526.62 1636.79 1527.44 C 1665.3 1528.39 1661.46 1555.11 1661.11 1575.95 L 1643 1575.94 L 978.604 1575.93 C 978.145 1553.98 974.651 1537.38 998.118 1527.12 z"/>
<path transform="translate(0,0)" fill="rgb(242,241,241)" d="M 1989.29 1957.55 C 1989.98 1957.53 1989.45 1957.43 1991.28 1958.63 C 1993.33 1966.17 1994.85 1976.47 1996.25 1984.34 C 1994.67 1987.84 1990.75 1994.89 1992.51 1998.23 C 1994.78 1997.96 1997.06 1997.71 1999.34 1997.5 C 2002.99 2000.11 2001.86 1999.31 2003.9 2004.01 C 2006.94 2006.67 2009.33 2005.87 2013.62 2006.72 L 2013.67 2008.39 C 2009.61 2009.95 2001.31 2006.81 1997.72 2004.7 C 1991.96 2004.31 1993.88 2004.33 1988.08 2007.19 L 1986.54 2006.24 C 1987.76 1992.32 1987.89 1982.16 1987.83 1968.15 C 1980.81 1968.35 1972.62 1969.73 1968.35 1963.07 C 1972.36 1956.39 1982.53 1957.57 1989.29 1957.55 z"/>
<path transform="translate(0,0)" fill="rgb(242,241,241)" d="M 1707.2 1963.21 C 1716.06 1963.81 1722.72 1961.53 1729.81 1964.61 C 1732.02 1968.04 1731.23 1967.79 1731.23 1972.69 C 1722.89 1972.13 1716.2 1974.43 1709.56 1971.42 C 1706.87 1967.9 1707.72 1968.41 1707.2 1963.21 z"/>
<path transform="translate(0,0)" fill="rgb(242,241,241)" d="M 1838.36 1955.73 C 1841.35 1959.31 1844.96 1972.89 1842.86 1977.6 L 1838.61 1979 C 1835.75 1978.54 1835.63 1978.77 1833.37 1977.07 C 1831.07 1970.2 1835.49 1962.77 1838.36 1955.73 z"/>
<path transform="translate(0,0)" fill="rgb(242,241,241)" d="M 1991.11 1935.5 C 1993.56 1935.34 1996.01 1935.21 1998.46 1935.1 C 2001.42 1934.99 2007.8 1934.55 2009.89 1937.03 C 2013.2 1940.95 2014.68 1950.6 2014.35 1955.59 L 2013.36 1955.29 L 2011.64 1949.93 C 2010.9 1945.96 2008.95 1937.5 2004.61 1936.64 C 2001.17 1940.27 2002.04 1945.53 1999.43 1947.75 C 1996.65 1942.83 1994.91 1939.84 1991.11 1935.5 z"/>
<path transform="translate(0,0)" fill="rgb(242,241,241)" d="M 1962.07 1946.1 C 1965.52 1945.89 1983.84 1945.17 1985.45 1946.98 C 1977.01 1948.46 1970.37 1948.12 1961.88 1948 L 1961.75 1963.84 C 1961.25 1971.51 1961 1978.08 1958.72 1985.52 C 1958.53 1975.02 1957.54 1955.23 1962.07 1946.1 z"/>
<path transform="translate(0,0)" fill="rgb(242,241,241)" d="M 1948.57 1996.32 C 1949.72 1996.8 1949.98 1997.19 1950.99 1998 C 1951.03 2000.33 1951.28 2004.95 1949.36 2006.22 C 1941.32 2011.55 1908.05 2009.02 1897.99 2008.81 L 1897.11 2008.66 L 1896.7 2007.69 C 1901.71 2006.24 1936.88 2007.53 1946.61 2006.48 C 1948.7 2003.2 1948.37 2000.28 1948.57 1996.32 z"/>
<path transform="translate(0,0)" fill="rgb(242,241,241)" d="M 1692.1 1937.51 C 1700.01 1936.31 1736.53 1936.9 1746.08 1937.27 L 1746.49 1939.09 C 1729.8 1938.63 1709.38 1939.17 1692.74 1939.56 L 1692.1 1937.51 z"/>
<path transform="translate(0,0)" fill="rgb(242,241,241)" d="M 1766.18 1968.21 C 1769.71 1967.98 1771.87 1967.44 1774.96 1969.09 C 1777.09 1972.91 1776.25 1974.75 1775.58 1979.45 C 1772.04 1979.66 1770.51 1980.05 1767.21 1978.69 C 1765.27 1975.02 1766.06 1972.81 1766.18 1968.21 z"/>
<path transform="translate(0,0)" fill="rgb(242,241,241)" d="M 1927.86 1942.43 C 1936.17 1947.51 1947.04 1944.47 1950.57 1951.08 C 1950.18 1953.8 1950.43 1953.9 1948.68 1955.93 L 1947.7 1955.17 C 1948.04 1951.67 1948.41 1952.76 1947.32 1949.79 C 1939.38 1947.28 1935.92 1951.1 1929.58 1948.77 C 1927.28 1946.23 1928.03 1946.87 1927.86 1942.43 z"/>
<path transform="translate(0,0)" fill="rgb(242,241,241)" d="M 1899.02 1937.31 L 1900.68 1939.14 C 1899.75 1944.52 1899.13 1948.99 1898.51 1954.41 L 1897.53 1953.61 C 1895.44 1948.69 1897.67 1942.4 1899.02 1937.31 z"/>
<path transform="translate(0,0)" fill="rgb(242,241,241)" d="M 1792.61 2006.4 C 1797.45 2005.99 1801.13 2005.02 1804.4 2007.74 C 1799.43 2008.42 1796.18 2009.9 1792.61 2006.4 z"/>
</svg>