<svg version="1.1" xmlns="http://www.w3.org/2000/svg" style="display: block;" viewBox="0 0 2048 2048" width="1000" height="1000" preserveAspectRatio="none">
<path transform="translate(0,0)" fill="rgb(255,255,250)" d="M 0 0 L 2048 0 L 2048 2048 L 0 2048 L 0 0 z"/>
<path transform="translate(0,0)" fill="rgb(208,174,124)" d="M 998.949 399.346 C 1050.42 393.953 1087.77 417.904 1110.65 462.88 C 1146.92 447.376 1199.94 470.339 1229.42 490.849 C 1243.9 500.925 1257.9 509.321 1274.93 514.747 C 1297.56 521.958 1321.37 521.181 1344.77 523.545 C 1382.46 526.483 1421.01 530.692 1458.37 536.249 C 1486.12 540.378 1520.28 540.355 1540.24 562.28 C 1557.55 581.289 1552.87 612.833 1553.09 636.777 C 1553.24 653.576 1541.39 673.423 1525.52 680.174 C 1509.83 685.94 1475.78 683.299 1458.15 683.241 L 1327.65 683.164 C 1235.47 683.139 1174.12 680.101 1098.73 745.918 L 1099.05 1554.96 L 1266.3 1554.99 C 1296.27 1554.99 1327.23 1554.03 1357.02 1555.9 C 1426.58 1560.25 1480.56 1617.52 1481.27 1687.05 C 1481.79 1738.1 1440.71 1729.04 1404.1 1728.99 L 1319.06 1728.93 L 1027.25 1728.4 L 702.958 1728.22 C 671.746 1728.48 640.534 1728.57 609.322 1728.47 C 594.8 1728.46 576.268 1729.72 562.38 1727.48 C 542.971 1724.35 537.229 1702.87 537.174 1686.71 C 537.053 1651.49 552.844 1620.17 577.256 1595.8 C 595.872 1577.12 619.401 1564.1 645.117 1558.24 C 667.063 1553.19 722.12 1554.99 747.907 1554.95 L 925.641 1555.07 L 925.94 994.567 C 926.014 912.23 925.065 828.981 926.222 746.763 C 897.303 716.199 838.688 692.805 798.45 686.791 C 767.071 682.101 729.803 683.203 697.833 683.248 C 654.813 683.503 611.793 683.491 568.774 683.211 C 543.283 683.132 505.883 689.219 487.742 669.617 C 468.881 649.235 474.056 620.998 474.224 595.411 C 474.579 541.423 538.539 540.576 577.261 535.006 C 609.173 530.641 641.798 526.621 673.944 524.029 C 707.854 520.955 742.144 519.177 775.501 512.574 C 828.724 499.545 845.259 469.348 906.16 472.658 C 923.806 432.332 954.934 405.677 998.949 399.346 z"/>
<path transform="translate(0,0)" fill="rgb(255,255,250)" d="M 980.788 605.964 C 1001.46 605.783 1022.58 606.019 1043.28 606.058 L 1043.53 1247.22 L 1043.57 1462 C 1043.57 1473.24 1044.37 1552.37 1042.72 1555.02 L 980.467 1555.34 L 980.788 605.964 z"/>
<path transform="translate(0,0)" fill="rgb(255,255,250)" d="M 681.05 1608.48 L 1129.48 1608.44 L 1273 1608.59 C 1299.94 1608.57 1328 1607.35 1354.8 1609.24 C 1393.09 1611.93 1419.43 1637.82 1425.67 1674.65 L 1340.49 1674.36 L 593.024 1674.48 C 603.87 1627.57 634.956 1609.49 681.05 1608.48 z"/>
<path transform="translate(0,0)" fill="rgb(255,255,250)" d="M 1133.09 511.245 C 1181.91 507.721 1215.35 554.74 1259.26 567.711 C 1270.8 571.119 1299.14 572.584 1312.64 573.747 C 1354.89 577.224 1397.07 581.367 1439.19 586.172 C 1455.15 588.101 1486 591.3 1499.87 596.731 C 1500.05 608.183 1499.99 619.83 1500.04 631.297 L 1407.75 631.115 L 1306.13 630.912 C 1222.4 630.876 1167.67 632.76 1094.18 683.245 C 1094.81 658.304 1095.08 630.176 1094.33 605.297 C 1132.39 570.831 1089.4 529.734 1133.09 511.245 z"/>
<path transform="translate(0,0)" fill="rgb(255,255,250)" d="M 882.899 525.255 C 885.319 525.085 887.742 524.948 890.166 524.843 C 918.871 523.685 906.829 567.609 914.196 584.847 C 918.621 595.199 920.888 596.701 928.945 604.109 C 928.087 630.358 928.471 655.786 928.745 682.05 C 886.083 651.305 829.601 635.052 777.31 631.61 C 757.132 630.282 733.188 630.879 712.67 630.922 L 621.75 631.01 C 590.253 631.122 558.132 631.857 526.721 631.285 C 525.862 620.542 526.134 607.932 526.102 597.024 C 540.71 591.714 572.175 588.232 588.315 586.228 C 627.126 581.215 666.04 577.027 705.029 573.665 C 728.689 571.537 757.556 569.606 780.655 566.126 C 815.326 560.904 849.415 534.078 882.899 525.255 z"/>
<path transform="translate(0,0)" fill="rgb(255,255,250)" d="M 1001.02 452.153 C 1023.08 450.584 1042.35 455.909 1056.83 474.12 C 1077.82 500.511 1061.52 524.852 1058.06 554.266 L 1021.87 554.058 L 964.201 554.048 C 961.645 526.422 945.39 505.529 961.721 479.582 C 971.71 463.711 983.588 456.71 1001.02 452.153 z"/>
<path transform="translate(0,0)" fill="rgb(208,174,124)" d="M 1458.23 695.236 C 1480.27 693.602 1490.87 701.312 1500.32 721.326 C 1510.29 742.401 1519.68 763.828 1529.4 785.027 C 1547.16 823.034 1564.63 861.176 1581.81 899.448 L 1672.17 1096.37 C 1690.01 1135.38 1706.33 1174.88 1728.43 1211.69 C 1730.85 1216.51 1731.65 1220.21 1732.08 1225.44 C 1738.98 1309.14 1682.18 1378.05 1608.81 1411.84 C 1565.6 1431.75 1522.62 1439.02 1474.39 1440.91 C 1420.81 1441.4 1373.44 1434.73 1323.61 1412.67 C 1245.39 1378.04 1188.03 1306.7 1200.07 1217.8 C 1201.12 1209.99 1213.37 1194.59 1217.35 1186.65 C 1221.79 1177.79 1225.97 1169.2 1230 1160.04 C 1258.96 1095.11 1288.42 1030.39 1318.37 965.905 L 1426.37 730.219 C 1434.47 712.867 1438.99 702.25 1458.23 695.236 z"/>
<path transform="translate(0,0)" fill="rgb(255,255,250)" d="M 1463.73 773.526 C 1467.49 776.035 1503.61 858.484 1509.48 871.353 L 1614.14 1099.16 C 1630.05 1133.18 1646.73 1170.58 1663.72 1203.8 C 1599.94 1202.38 1531.87 1203.67 1467.75 1203.57 C 1401.61 1204.37 1334.46 1203.18 1267.92 1203.81 C 1291.91 1155.8 1315.88 1098.47 1338.23 1049.01 L 1463.73 773.526 z"/>
<path transform="translate(0,0)" fill="rgb(255,255,250)" d="M 1259.78 1256.51 L 1678.74 1256.13 C 1670.41 1293.92 1653.81 1317.47 1623.97 1341.22 C 1597.51 1360.98 1559.35 1377.11 1525.52 1382.93 C 1430.72 1399.25 1301.04 1378.2 1259.19 1279.55 C 1256.88 1274.1 1251.68 1262.21 1255.52 1256.98 L 1259.78 1256.51 z"/>
<path transform="translate(0,0)" fill="rgb(208,174,124)" d="M 561.552 695.125 C 562.497 695.058 563.443 695.002 564.39 694.957 C 582.09 694.156 592.786 702.685 600.594 718.202 C 608.284 733.484 614.87 749.38 621.762 765.044 L 660.007 852.156 C 678.488 893.561 698.228 934.568 716.599 975.979 C 739.884 1029.24 763.558 1082.32 787.618 1135.23 C 794.761 1151.08 801.814 1168.12 809.085 1183.7 C 818.408 1203.67 829.1 1206.63 829.972 1231.61 C 833.694 1338.17 740.961 1413.12 644.015 1432.94 C 618.026 1438.25 597.242 1439.86 570.833 1440.61 C 517.458 1440.09 462.479 1431.39 414.785 1406.54 C 366.07 1381.16 322.93 1339.54 306.947 1285.81 C 301.201 1266.49 299.006 1237.04 302.839 1216.99 C 304.531 1208.14 316.085 1196.04 320.078 1187.29 C 332.106 1160.96 344.743 1134.33 356.512 1107.91 C 390.66 1031.25 427.19 955.503 461.306 878.887 L 505.188 782.347 C 515.077 760.338 524.784 737.607 535.645 716.116 C 541.512 704.508 549.403 698.832 561.552 695.125 z"/>
<path transform="translate(0,0)" fill="rgb(255,255,250)" d="M 566.031 774.542 C 568.213 777.197 576.722 796.407 578.715 800.712 C 591.974 829.119 604.879 857.689 617.429 886.416 L 718.472 1111.41 C 732.631 1142.26 746.152 1173.44 761.214 1203.82 C 697.817 1202.36 631.266 1203.56 567.5 1203.39 C 502.04 1202.96 436.577 1203.11 371.119 1203.84 C 423.657 1093.93 471.74 979.738 523.212 869.249 C 537.283 839.044 551.105 803.52 566.031 774.542 z"/>
<path transform="translate(0,0)" fill="rgb(255,255,250)" d="M 356.888 1256.54 C 372.029 1255.88 391.23 1256.44 406.765 1256.41 L 504.567 1256.23 L 776.621 1256.25 C 768.235 1292.24 754.176 1312.14 727.332 1336.94 C 723.934 1339.64 720.488 1342.27 716.993 1344.85 C 625.315 1411.23 448.905 1402.43 378.102 1308.42 C 370.978 1298.96 354.954 1268.59 356.888 1256.54 z"/>
<path transform="translate(0,0)" fill="rgb(242,242,237)" d="M 1987.4 1935.96 C 1994.43 1935.44 2006.49 1933.51 2011.18 1939.43 C 2014.4 1943.49 2015.6 1952.7 2014.6 1957.68 C 2011.82 1960.54 2012.01 1959.65 2007.04 1960.44 C 2003.72 1964.1 2005.66 1969.77 2008.63 1973.02 C 2011.31 1973.59 2012.37 1973.54 2014.5 1975.22 L 2013.71 1976.4 C 2009.77 1977.99 2008.84 1978.66 2004.74 1978.61 C 2003 1975.93 2000.41 1962.01 1999.54 1958.02 L 2012.67 1957.89 C 2012.23 1952.9 2010.83 1940.92 2007.03 1937.9 L 2005.01 1938.58 C 2001.04 1943.13 2003.23 1943.47 2000.63 1947.5 L 1998.1 1947.71 C 1996.59 1943.34 1995.58 1938.69 1991.21 1936.98 C 1988.74 1938.64 1987.68 1944.45 1986.94 1947.29 C 1982.82 1948.69 1967.11 1948.18 1962.05 1948.17 C 1962.18 1955.18 1961.85 1985.89 1958.43 1990.75 C 1956.64 1982.95 1959.01 1962.88 1959.74 1954.19 C 1961.08 1938.29 1973.83 1945.84 1987.4 1935.96 z"/>
<path transform="translate(0,0)" fill="rgb(242,242,237)" d="M 1696.59 1951.82 C 1700.6 1954.13 1730.1 1953.39 1736.08 1952.48 L 1736.26 1953.64 L 1737.76 1954.68 C 1726.74 1953.91 1709 1953.77 1698.07 1955.36 C 1697.47 1975.85 1694.29 1985.04 1718.49 1981.88 C 1725.05 1981.03 1732.74 1982.99 1739.39 1980.32 C 1746.79 1972.22 1736.53 1963.06 1744.47 1955.86 C 1747.51 1959.24 1747.16 1975.58 1744.11 1978.52 C 1740.37 1982.13 1740.6 1990.02 1739.39 1991.91 C 1737.93 1987.06 1739.09 1987.02 1739 1982.43 L 1736.13 1983 C 1729.67 1982.91 1704.09 1981.1 1701.34 1986.27 C 1702.39 1988.11 1703.47 1989.93 1704.58 1991.74 L 1703.76 1994.22 C 1699.43 1998.3 1696.66 1994.97 1692.4 1998.96 C 1692.07 2001.99 1692.47 2002.07 1693.78 2004.93 C 1703.53 2007.78 1734.43 2004.7 1747.02 2006.45 L 1746.87 2007.3 C 1736.24 2011.45 1705.52 2011.64 1694.63 2008.04 C 1692.74 2007.42 1692.31 2007.39 1691.42 2005.53 C 1687.29 1996.82 1696.15 1995.72 1698.95 1989.71 C 1700.78 1985.79 1691.91 1965.49 1696.59 1951.82 z"/>
<path transform="translate(0,0)" fill="rgb(242,242,237)" d="M 1927.84 1982.28 C 1932.11 1982.16 1935.7 1982.21 1939.97 1982.36 C 1936.07 1983.19 1932.83 1984.07 1929 1985.16 L 1929 1995.02 C 1933.04 1995.05 1939.32 1995.45 1942.95 1994.49 L 1940.2 1992.18 C 1944.69 1990.64 1949.47 1994.09 1951.75 1997.89 C 1954.43 2014.6 1926.78 2009.09 1917.96 2010.44 C 1909.51 2011.73 1886.6 2008.72 1898.02 1995.71 C 1901.88 1993.95 1912.16 1994.95 1917 1995 L 1917.03 1986.84 C 1914.96 1983.08 1914.95 1984.06 1910.1 1981.8 C 1913.37 1981.82 1914.45 1981.52 1917.12 1983.41 C 1918.94 1986.77 1918.13 1992.05 1917.93 1996.1 C 1911.09 1996.03 1899.17 1994.25 1896.93 2002.52 L 1898.45 2004.65 C 1903.49 2006.74 1940.17 2006.69 1946.82 2005.15 C 1948.34 2002.96 1947.81 2000.79 1947.68 1998 C 1943.29 1994.54 1934.16 1996.28 1928.11 1996.7 L 1927.84 1982.28 z"/>
<path transform="translate(0,0)" fill="rgb(242,242,237)" d="M 1901.06 1935.83 C 1905.52 1935.7 1916.06 1936.08 1920.09 1937.61 C 1919.67 1941.83 1917.81 1946.71 1915.11 1950.05 L 1913.31 1950.23 C 1908.49 1946.68 1908.19 1937.83 1903.44 1937.01 C 1900.26 1941.18 1898.77 1954.36 1897.79 1960.03 L 1918 1959.9 L 1918.13 1972.12 C 1914.84 1972.15 1911.55 1972.14 1908.26 1972.09 C 1904.42 1972 1905.03 1972.59 1903.19 1970.64 C 1906.71 1968.57 1911.75 1972.42 1916.17 1970.26 C 1917.53 1967.37 1917.29 1967.46 1916.88 1964.22 C 1912.25 1957.63 1905.69 1966.04 1896.5 1961.08 C 1892.12 1955.17 1896.65 1941.19 1901.06 1935.83 z"/>
<path transform="translate(0,0)" fill="rgb(242,242,237)" d="M 1870.18 1937.9 L 1885.49 1937.85 C 1887.02 1948.68 1887.17 1997.42 1884.48 2006.21 C 1883.9 1985.54 1884.37 1963.63 1884.19 1942.75 L 1883.49 1940.73 C 1880.55 1939.38 1875.54 1939.91 1872.1 1939.99 C 1871.26 1959.97 1871.75 1982.82 1871.61 2003.05 C 1869.8 1978.52 1868.15 1962.51 1870.18 1937.9 z"/>
<path transform="translate(0,0)" fill="rgb(242,242,237)" d="M 1763.89 1936.26 C 1766.64 1935.77 1775.06 1937.55 1777.19 1938.65 C 1784.78 1942.54 1799.65 1935.4 1804.08 1943.59 C 1809.24 1953.13 1807.82 1976.52 1805.33 1986.21 C 1803.04 1980.91 1805.33 1958.07 1803.85 1948.94 C 1802.78 1934.77 1777.6 1946.32 1769.53 1939.65 C 1767.54 1938 1766.32 1937.96 1763.63 1937.44 L 1763.89 1936.26 z"/>
<path transform="translate(0,0)" fill="rgb(242,242,237)" d="M 1708.03 1964.13 C 1716.15 1964.29 1723.14 1962.36 1730.44 1964.91 C 1732.64 1967.86 1731.85 1967.37 1731.6 1972.16 C 1723.31 1972.13 1716.98 1974.43 1709.71 1971.8 C 1707.26 1968.57 1708.09 1969.19 1708.03 1964.13 z"/>
<path transform="translate(0,0)" fill="rgb(242,242,237)" d="M 1837.58 1956.53 C 1841.18 1958.88 1844.37 1972.02 1843.75 1976.26 C 1843.54 1977.72 1842.44 1977.82 1841.17 1978.55 C 1836.27 1978.06 1835.62 1978.84 1833.18 1975.98 C 1832.2 1969.68 1835.44 1963.03 1837.58 1956.53 z"/>
<path transform="translate(0,0)" fill="rgb(242,242,237)" d="M 1926.81 1938.62 C 1928.43 1941.4 1928.87 1944.07 1929.65 1947.19 C 1934.76 1952.09 1938.13 1946.16 1946.49 1947.28 C 1950.4 1950.27 1951.57 1955.99 1949.79 1960.45 C 1942.93 1965.54 1939.5 1960.96 1930.69 1960.94 C 1927.91 1963.15 1928.84 1961.76 1927.99 1965.36 C 1929 1968.44 1928.96 1968.21 1931.52 1970.26 C 1936 1971.71 1938.32 1971.42 1940.96 1967.63 C 1942.99 1969.64 1944.55 1970.74 1945.32 1973.46 C 1936.83 1971.08 1935.8 1972.97 1928.82 1971.5 C 1926.97 1967.75 1926.1 1965.73 1927.85 1961.94 C 1934.42 1957.84 1942.75 1963.84 1947.95 1956.24 C 1948.21 1952.63 1948.76 1953.04 1947.25 1950.36 C 1943.27 1949.53 1933 1949.85 1928.37 1949.87 C 1928.19 1946.24 1927.41 1942.25 1926.81 1938.62 z"/>
<path transform="translate(0,0)" fill="rgb(242,242,237)" d="M 1704.74 1936.43 C 1715.47 1936.22 1727.39 1935.71 1737.99 1936.42 L 1737.49 1936.94 L 1728.58 1937.17 C 1730.67 1939.01 1733.61 1937.18 1738.13 1938.55 C 1735.05 1939.29 1727.27 1939.01 1723.75 1939 C 1716.59 1939.01 1701.45 1938.61 1694.96 1939.52 C 1693.3 1941.86 1693.94 1946.17 1694.05 1949.32 L 1692.78 1949.39 C 1691.27 1946.24 1691.38 1941.17 1693.23 1938.18 C 1696.29 1936.06 1700.83 1936.52 1704.74 1936.43 z"/>
<path transform="translate(0,0)" fill="rgb(242,242,237)" d="M 1766.5 1968.2 C 1769.76 1967.93 1772.35 1967.25 1775.05 1968.84 C 1776.97 1971.66 1776.21 1976.59 1776.09 1980.28 C 1770.93 1980.09 1770.74 1980.88 1766.89 1978.59 C 1765.23 1975.38 1766.1 1971.91 1766.5 1968.2 z"/>
<path transform="translate(0,0)" fill="rgb(242,242,237)" d="M 1900.22 1971.39 L 1902.02 1973.19 C 1902 1981.38 1900.9 1980.93 1907.64 1984.23 C 1904.62 1984.29 1903.07 1984.68 1900.69 1982.92 C 1898.77 1979.76 1899.84 1975.3 1900.22 1971.39 z"/>
</svg>